<svg id="Layer_1" data-name="Layer 1" xmlns="http://www.w3.org/2000/svg" viewBox="0 0 1800 1800"><path d="M1282,1183.77l-21.52-95.5,73.48-64.54s.06-.09.11-.11L1532.81,849l77.3-67.9c40.42-35.55,29.62-68.68-24-73.67l-182.91-17-280.42-26L1011.39,405.8,938.75,237.11c-21.3-49.48-56.19-49.48-77.49,0L788.6,405.8,677.2,664.48l-280.45,26-182.87,17c-53.64,5-64.42,38.15-23.94,73.71l276,242.46.07.07,73.52,64.58L518,1183.66l0,.18-80.75,358.38c-11.86,52.57,16.35,73.07,62.68,45.55l272-161.53L900,1350.18,1142.16,1494l158,93.78c46.29,27.49,74.49,7,62.7-45.49L1322.4,1363,1282,1183.84S1282,1183.79,1282,1183.77Z" style="fill:#ffc30a"/></svg>